<?xml version="1.0" standalone="no"?>
<!DOCTYPE svg PUBLIC "-//W3C//DTD SVG 1.1//EN" "http://www.w3.org/Graphics/SVG/1.1/DTD/svg11.dtd" >
<svg xmlns="http://www.w3.org/2000/svg" xmlns:xlink="http://www.w3.org/1999/xlink" version="1.1">
<metadata></metadata>
<defs>
<font id="supermolotblack" horiz-adv-x="1269" >
<font-face units-per-em="2048" ascent="1661" descent="-387" />
<missing-glyph horiz-adv-x="655" />
<glyph horiz-adv-x="0" />
<glyph horiz-adv-x="682" />
<glyph unicode=" "  horiz-adv-x="655" />
<glyph unicode="&#x09;" horiz-adv-x="655" />
<glyph unicode="&#xa0;" horiz-adv-x="655" />
<glyph unicode="!" horiz-adv-x="706" d="M92 1188v246h522v-246l-82 -686h-358zM154 0v369h399v-369h-399z" />
<glyph unicode="&#x22;" horiz-adv-x="921" d="M61 1219v215h359v-215l-41 -256h-277zM502 1219v215h358v-215l-41 -256h-276z" />
<glyph unicode="#" horiz-adv-x="1495" d="M61 287v307h175l40 246h-153v307h205l41 287h419l-40 -287h139l45 287h420l-41 -287h123v-307h-174l-41 -246h153v-307h-205l-41 -287h-419l41 287h-144l-41 -287h-420l41 287h-123zM655 594h144l39 246h-142z" />
<glyph unicode="$" horiz-adv-x="1300" d="M72 0v369h665v133l-409 82q-110 22 -183 101.5t-73 184.5v277q0 123 81.5 205t204.5 82h72v184h430v-184h328v-246l-113 -123h-512v-113l410 -82q110 -22 183 -101.5t73 -184.5v-297q0 -123 -82 -205t-205 -82h-82v-184h-430v184h-358z" />
<glyph unicode="%" horiz-adv-x="1853" d="M61 952v308q0 76 59 135t136 59h328q76 0 135 -59t59 -135v-308q0 -76 -59 -135t-135 -59h-328q-77 0 -136 59t-59 135zM358 0v154l779 1280h358v-154l-778 -1280h-359zM379 1004h82v204h-82v-204zM1075 174v307q0 77 59.5 136t135.5 59h327q77 0 136 -59t59 -136v-307 q0 -76 -59 -135t-136 -59h-327q-77 0 -136 59t-59 135zM1393 225h82v205h-82v-205z" />
<glyph unicode="&#x26;" horiz-adv-x="1433" d="M61 266v215q0 103 87 179.5t221 76.5v21q-47 24 -72 53q-72 72 -72 182v154q0 123 82 205t205 82h686v-246l-113 -123h-368v-61l696 -820v-184h-471l-72 92h-20q-17 -28 -53 -57q-69 -55 -162 -55h-287q-123 0 -205 81.5t-82 204.5zM532 348h144l-144 174v-174z" />
<glyph unicode="'" horiz-adv-x="481" d="M61 1219v215h359v-215l-41 -256h-277z" />
<glyph unicode="(" horiz-adv-x="839" d="M143 -102v1413q0 123 82 204.5t205 81.5h348v-368h-164v-1249h164v-369h-348q-123 0 -205 82t-82 205z" />
<glyph unicode=")" horiz-adv-x="839" d="M61 -20h164v1249h-164v368h349q123 0 204.5 -81.5t81.5 -204.5v-1413q0 -123 -81.5 -205t-204.5 -82h-349v369z" />
<glyph unicode="*" horiz-adv-x="901" d="M61 1085l52 164l204 -30l31 215h205l31 -215l204 30l52 -164l-185 -81l113 -175l-164 -112l-153 164l-154 -164l-164 112l113 175z" />
<glyph unicode="+" horiz-adv-x="1126" d="M61 471v348h328v328h348v-328h328v-348h-328v-328h-348v328h-328z" />
<glyph unicode="," horiz-adv-x="563" d="M82 -205v574h399v-287l-205 -287h-194z" />
<glyph unicode="-" horiz-adv-x="1003" d="M61 471v348h881v-348h-881z" />
<glyph unicode="." horiz-adv-x="563" d="M82 0v369h399v-369h-399z" />
<glyph unicode="/" horiz-adv-x="1187" d="M20 51l717 1485h430v-154l-716 -1484h-431v153z" />
<glyph unicode="0" horiz-adv-x="1382" d="M113 266v901q0 122 83 204.5t201 82.5h586q123 0 205 -82t82 -205v-901q0 -123 -82 -204.5t-205 -81.5h-584q-123 0 -204.5 81.5t-81.5 204.5zM604 348h174v737h-174v-737z" />
<glyph unicode="1" horiz-adv-x="931" d="M31 1044v226l379 164h368v-1434h-491v1044h-256z" />
<glyph unicode="2" horiz-adv-x="1218" d="M41 0v348l604 615v102h-471l-113 123v246h789q123 0 205 -82t82 -205v-205q0 -84 -41.5 -150t-112.5 -126l-317 -277v-20h471v-369h-1096z" />
<glyph unicode="3" horiz-adv-x="1249" d="M41 1188v246h1085v-349l-317 -235h72q123 0 204.5 -82t81.5 -205v-276q0 -123 -81.5 -205t-204.5 -82h-820v369h615v153h-400v307l275 215v21h-397z" />
<glyph unicode="4" horiz-adv-x="1361" d="M20 246v348l482 840h665v-820h174v-368h-174v-246h-491v246h-656zM512 614h184v349h-20z" />
<glyph unicode="5" horiz-adv-x="1300" d="M123 0v369h614v184h-614v881h1055v-246l-113 -123h-451v-164h328q123 0 205 -82t82 -205v-327q0 -123 -82 -205t-205 -82h-819z" />
<glyph unicode="6" horiz-adv-x="1331" d="M113 266v881q0 123 81.5 205t204.5 82h809v-246l-112 -123h-492v-164h369q123 0 205 -82t82 -205v-348q0 -123 -82 -204.5t-205 -81.5h-574q-123 0 -204.5 81.5t-81.5 204.5zM604 348h164v184h-164v-184z" />
<glyph unicode="7" horiz-adv-x="1157" d="M20 1065v369h1106v-349l-460 -1085h-482v184l420 860v21h-584z" />
<glyph unicode="8" horiz-adv-x="1351" d="M72 266v226q0 129 112 194q56 30 113 41v21q-51 11 -98 40q-97 65 -97 195v184q0 123 82 205t205 82h574q123 0 204.5 -82t81.5 -205v-184q0 -129 -98 -195q-46 -29 -96 -40v-21q52 -10 112 -41q113 -68 113 -194v-226q0 -123 -82 -204.5t-205 -81.5h-635 q-123 0 -204.5 81.5t-81.5 204.5zM563 348h225v205h-225v-205zM594 901h164v184h-164v-184z" />
<glyph unicode="9" horiz-adv-x="1331" d="M72 788v379q0 123 81.5 205t204.5 82h574q123 0 205 -82t82 -205v-880q0 -123 -82 -205t-205 -82h-799v369h594v133h-369q-123 0 -204.5 81.5t-81.5 204.5zM563 870h164v215h-164v-215z" />
<glyph unicode=":" horiz-adv-x="563" d="M82 0v369h399v-369h-399zM82 737v369h399v-369h-399z" />
<glyph unicode=";" horiz-adv-x="563" d="M82 -205v574h399v-287l-205 -287h-194zM82 737v369h399v-369h-399z" />
<glyph unicode="&#x3c;" horiz-adv-x="1105" d="M102 379v348l902 399v-409l-420 -154v-20l420 -154v-409z" />
<glyph unicode="=" horiz-adv-x="1105" d="M82 256v317h942v-317h-942zM82 696v318h942v-318h-942z" />
<glyph unicode="&#x3e;" horiz-adv-x="1105" d="M102 -20v409l420 154v20l-420 154v409l902 -399v-348z" />
<glyph unicode="?" horiz-adv-x="1126" d="M10 1188v246h778q123 0 205 -82t82 -205v-215q0 -164 -133 -225l-246 -113v-92h-409v153q0 169 133 226l164 71v113h-461zM297 0v369h399v-369h-399z" />
<glyph unicode="@" horiz-adv-x="1853" d="M113 225v983q0 123 81.5 205t204.5 82h1045q123 0 205 -82t82 -205v-819h-297l-52 113h-10q-15 -41 -39 -68q-61 -65 -145 -65h-246q-100 0 -173 72.5t-73 172.5v195q0 100 73 173t173 73h369v164h-779v-1004h1178v-276h-1311q-123 0 -204.5 81.5t-81.5 204.5zM1126 645 h185v143h-185v-143z" />
<glyph unicode="A" horiz-adv-x="1454" d="M31 0v184l368 1250h656l368 -1250v-184h-522l-41 266h-266l-41 -266h-522zM635 614h184l-82 369h-20z" />
<glyph unicode="B" horiz-adv-x="1433" d="M143 0v1434h881q123 0 205 -82t82 -205v-164q0 -128 -99 -195q-46 -29 -96 -40v-21q58 -11 117 -41q119 -67 119 -194v-205q0 -123 -82 -205t-205 -82h-922zM635 369h225v184h-225v-184zM635 901h184v164h-184v-164z" />
<glyph unicode="C" horiz-adv-x="1259" d="M113 287v860q0 123 81.5 205t204.5 82h799v-246l-113 -123h-481v-696h594v-369h-799q-123 0 -204.5 82t-81.5 205z" />
<glyph unicode="D" horiz-adv-x="1443" d="M143 0v1434h901q123 0 205 -82t82 -205v-860q0 -123 -82 -205t-205 -82h-901zM635 369h205v696h-205v-696z" />
<glyph unicode="E" horiz-adv-x="1290" d="M143 0v1434h1096v-246l-113 -123h-491v-164h420v-348h-420v-184h604v-369h-1096z" />
<glyph unicode="F" horiz-adv-x="1259" d="M143 0v1434h1096v-246l-113 -123h-491v-225h420v-369h-420v-471h-492z" />
<glyph unicode="G" horiz-adv-x="1382" d="M113 287v860q0 123 81.5 205t204.5 82h830v-246l-113 -123h-512v-696h195v430h471v-799h-871q-123 0 -204.5 82t-81.5 205z" />
<glyph unicode="H" horiz-adv-x="1495" d="M143 0v1434h492v-533h225v533h492v-1434h-492v532h-225v-532h-492z" />
<glyph unicode="I" horiz-adv-x="778" d="M143 0v1434h492v-1434h-492z" />
<glyph unicode="J" horiz-adv-x="1146" d="M20 -20v368h492v1086h492v-1168q0 -123 -82 -204.5t-205 -81.5h-697z" />
<glyph unicode="K" horiz-adv-x="1464" d="M143 0v1434h492v-533h92l154 533h501v-185l-256 -532l277 -533v-184h-502l-174 532h-92v-532h-492z" />
<glyph unicode="L" horiz-adv-x="1198" d="M143 0v1434h492v-1065h543v-369h-1035z" />
<glyph unicode="M" horiz-adv-x="2007" d="M61 0v184l154 1250h563l215 -656h21l215 656h563l154 -1250v-184h-543v778h-21l-163 -624h-431l-163 624h-21v-778h-543z" />
<glyph unicode="N" horiz-adv-x="1495" d="M143 0v1434h482l297 -656h20l-82 471v185h492v-1434h-482l-297 655h-20l82 -471v-184h-492z" />
<glyph unicode="O" horiz-adv-x="1443" d="M113 266v901q0 123 81.5 205t204.5 82h645q123 0 205 -82t82 -205v-901q0 -123 -82 -204.5t-205 -81.5h-645q-123 0 -204.5 81.5t-81.5 204.5zM604 348h236v737h-236v-737z" />
<glyph unicode="P" horiz-adv-x="1392" d="M143 0v1434h881q123 0 205 -82t82 -205v-451q0 -123 -82 -204.5t-205 -81.5h-389v-410h-492zM635 778h184v287h-184v-287z" />
<glyph unicode="Q" horiz-adv-x="1443" d="M113 266v901q0 123 81.5 205t204.5 82h645q123 0 205 -82t82 -205v-901q0 -123 -82 -204.5t-205 -81.5h-112l143 -123v-164h-409l-103 287h-164q-123 0 -204.5 81.5t-81.5 204.5zM604 348h236v737h-236v-737z" />
<glyph unicode="R" horiz-adv-x="1454" d="M143 0v1434h901q123 0 205 -82t82 -205v-348q0 -117 -98 -187q-43 -34 -96 -49l256 -379v-184h-502l-205 471h-51v-471h-492zM635 840h205v225h-205v-225z" />
<glyph unicode="S" horiz-adv-x="1300" d="M72 0v369h665v133l-409 82q-113 24 -184.5 101.5t-71.5 184.5v277q0 123 81.5 205t204.5 82h830v-246l-113 -123h-512v-113l410 -82q110 -22 183 -101.5t73 -184.5v-297q0 -123 -82 -205t-205 -82h-870z" />
<glyph unicode="T" d="M20 1065v369h1229v-246l-112 -123h-256v-1065h-492v1065h-369z" />
<glyph unicode="U" horiz-adv-x="1505" d="M143 266v1168h492v-1086h235v1086h492v-1168q0 -123 -82 -204.5t-205 -81.5h-645q-123 0 -205 81.5t-82 204.5z" />
<glyph unicode="V" horiz-adv-x="1433" d="M41 1249v185h522l144 -1004h20l143 1004h523v-185l-349 -1249h-655z" />
<glyph unicode="W" horiz-adv-x="2048" d="M61 1249v185h564v-840h20l154 614h450l154 -614h20v840h564v-185l-226 -1249h-573l-154 594h-20l-154 -594h-573z" />
<glyph unicode="X" horiz-adv-x="1413" d="M51 0v184l256 553l-235 512v185h522l102 -512h21l102 512h522v-185l-235 -512l256 -553v-184h-522l-123 512h-21l-123 -512h-522z" />
<glyph unicode="Y" horiz-adv-x="1372" d="M31 1249v185h512l133 -553h20l133 553h512v-185l-409 -839v-410h-492v410z" />
<glyph unicode="Z" horiz-adv-x="1239" d="M51 0v348l533 696v21h-420l-113 123v246h1116v-349l-532 -696v-20h553v-369h-1137z" />
<glyph unicode="[" horiz-adv-x="839" d="M143 -389v1986h635v-368h-164v-1249h164v-369h-635z" />
<glyph unicode="\" horiz-adv-x="1187" d="M20 1382v154h431l716 -1485v-153h-430z" />
<glyph unicode="]" horiz-adv-x="839" d="M61 -20h164v1249h-164v368h635v-1986h-635v369z" />
<glyph unicode="^" horiz-adv-x="1013" d="M20 922l328 512h318l327 -512h-348l-133 235h-10l-133 -235h-349z" />
<glyph unicode="_" horiz-adv-x="1024" d="M41 -61h942v-349h-942v349z" />
<glyph unicode="`" horiz-adv-x="696" d="M61 1434h431l143 -308h-318z" />
<glyph unicode="a" horiz-adv-x="1280" d="M72 225v195q0 100 72.5 173t172.5 73h390v133h-531v307h735q100 0 173 -73t73 -173v-860h-328l-51 113h-10q-14 -39 -37 -68q-53 -65 -137 -65h-277q-100 0 -172.5 72.5t-72.5 172.5zM512 256h195v154h-195v-154z" />
<glyph unicode="b" horiz-adv-x="1320" d="M133 0v1454h451v-348h389q100 0 173 -73t73 -173v-614q0 -100 -73 -173t-173 -73h-840zM584 338h184v430h-184v-430z" />
<glyph unicode="c" horiz-adv-x="1136" d="M102 246v614q0 100 73 173t173 73h727v-225l-102 -113h-420v-430h522v-338h-727q-100 0 -173 73t-73 173z" />
<glyph unicode="d" horiz-adv-x="1320" d="M102 225v635q0 100 73 173t173 73h389v348h451v-1454h-328l-51 113h-10q-14 -39 -37 -68q-53 -65 -137 -65h-277q-100 0 -173 72.5t-73 172.5zM553 317h184v451h-184v-451z" />
<glyph unicode="e" d="M102 246v635q0 100 73 172.5t173 72.5h574q100 0 172.5 -72.5t72.5 -172.5v-451h-624v-123h573v-307h-768q-100 0 -173 73t-73 173zM543 676h184v174h-184v-174z" />
<glyph unicode="f" horiz-adv-x="993" d="M133 0v1208q0 100 73 173t173 73h635v-225l-103 -113h-327v-174h317v-338h-317v-604h-451z" />
<glyph unicode="g" d="M31 10q0 95 96 156q44 25 98 39v10l-35 18q-36 28 -36 64v92q0 38 34 64l37 18v10q-34 15 -61 39q-62 62 -62 150v6v205q0 100 73 172.5t173 72.5h379l41 144h328v-144l-72 -41v-10q38 -15 66 -43q67 -63 67 -151v-256q0 -100 -73 -173t-173 -73h-379q-20 0 -20 -21v-41 q0 -20 20 -20h461q100 0 173 -73t73 -173v-153q0 -100 -73 -173t-173 -73h-717q-100 0 -172.5 73t-72.5 173v112zM471 41v-133h328v133h-328zM543 645h174v215h-174v-215z" />
<glyph unicode="h" horiz-adv-x="1341" d="M133 0v1454h451v-348h389q100 0 173 -73t73 -173v-860h-451v768h-184v-768h-451z" />
<glyph unicode="i" horiz-adv-x="696" d="M123 0v1065h450v-1065h-450zM123 1167v328h450v-328h-450z" />
<glyph unicode="j" horiz-adv-x="727" d="M-102 -10h256v1075h450v-1167q0 -100 -73 -173t-173 -73h-460v338zM154 1167v328h450v-328h-450z" />
<glyph unicode="k" horiz-adv-x="1320" d="M133 0v1454h451v-737h82l112 389h461v-164l-215 -379l236 -399v-164h-461l-133 379h-82v-379h-451z" />
<glyph unicode="l" horiz-adv-x="768" d="M133 225v1229h451v-1137h133v-337h-338q-100 0 -173 72.5t-73 172.5z" />
<glyph unicode="m" horiz-adv-x="1945" d="M123 0v1106h328l51 -113h10q15 38 37 66q55 67 137 67h246q82 0 137 -67q22 -28 37 -66h10q15 38 37 66q55 67 137 67h287q100 0 173 -72.5t73 -172.5v-881h-451v788h-174v-788h-450v788h-175v-788h-450z" />
<glyph unicode="n" horiz-adv-x="1341" d="M123 0v1106h328l51 -113h10q15 38 37 66q55 67 137 67h287q100 0 173 -72.5t73 -172.5v-881h-451v788h-195v-788h-450z" />
<glyph unicode="o" horiz-adv-x="1300" d="M102 225v656q0 100 73 172.5t173 72.5h604q100 0 173 -72.5t73 -172.5v-656q0 -100 -73 -172.5t-173 -72.5h-604q-100 0 -173 72.5t-73 172.5zM553 317h195v471h-195v-471z" />
<glyph unicode="p" horiz-adv-x="1310" d="M123 -348v1454h328l51 -113h10q15 38 37 66q55 67 137 67h277q100 0 172.5 -72.5t72.5 -172.5v-635q0 -100 -72.5 -173t-172.5 -73h-390v-348h-450zM573 338h185v450h-185v-450z" />
<glyph unicode="q" horiz-adv-x="1310" d="M102 246v614q0 100 73 173t173 73h840v-1454h-451v348h-389q-100 0 -173 73t-73 173zM553 338h184v430h-184v-430z" />
<glyph unicode="r" horiz-adv-x="1024" d="M123 0v1106h328l51 -113h10q15 38 37 66q55 67 137 67h307v-358h-420v-768h-450z" />
<glyph unicode="s" horiz-adv-x="1167" d="M61 0v307h594v82l-379 62q-94 18 -154.5 79t-60.5 146v184q0 100 73 173t173 73h748v-195l-103 -112h-440v-72l379 -61q94 -18 154.5 -79.5t60.5 -146.5v-194q0 -100 -73 -173t-173 -73h-799z" />
<glyph unicode="t" horiz-adv-x="1003" d="M41 768v338h143l144 266h286v-266h267v-338h-267v-451h349v-337h-553q-100 0 -173 72.5t-73 172.5v543h-123z" />
<glyph unicode="u" horiz-adv-x="1341" d="M123 225v881h450v-789h195v789h451v-1106h-328l-51 113h-11q-15 -41 -36 -68q-53 -65 -138 -65h-286q-100 0 -173 72.5t-73 172.5z" />
<glyph unicode="v" horiz-adv-x="1290" d="M51 942v164h471l113 -737h20l113 737h471v-164l-307 -942h-574z" />
<glyph unicode="w" horiz-adv-x="1781" d="M61 942v164h512v-686h21l92 502h410l92 -502h20v686h512v-164l-194 -942h-492l-133 420h-20l-133 -420h-492z" />
<glyph unicode="x" horiz-adv-x="1249" d="M51 0v164l225 389l-204 389v164h460l82 -379h21l82 379h461v-164l-205 -389l225 -389v-164h-461l-102 348h-21l-102 -348h-461z" />
<glyph unicode="y" d="M51 942v164h471l123 -645h21l82 645h471v-164l-338 -1065q-31 -99 -111 -162t-197 -63h-378v338h225v30z" />
<glyph unicode="z" horiz-adv-x="1146" d="M61 0v317l431 431v20h-328l-103 113v225h1004v-318l-430 -430v-20h450v-338h-1024z" />
<glyph unicode="{" horiz-adv-x="911" d="M82 420v368h72q61 0 61 62v461q0 123 82.5 204.5t206.5 81.5h346v-368h-164v-379q0 -129 -102 -195q-53 -31 -103 -41v-20q50 -10 103 -41q102 -66 102 -195v-378h164v-369h-348q-123 0 -205 82t-82 205v460q0 62 -61 62h-72z" />
<glyph unicode="|" horiz-adv-x="757" d="M143 -451v2048h471v-2048h-471z" />
<glyph unicode="}" horiz-adv-x="911" d="M61 -20h164v378q0 128 103 195q53 31 102 41v20q-49 10 -102 41q-103 67 -103 195v379h-164v368h349q123 0 204.5 -81.5t81.5 -204.5v-461q0 -62 62 -62h71v-368h-71q-62 0 -62 -62v-460q0 -123 -82 -205t-206 -82h-347v369z" />
<glyph unicode="~" horiz-adv-x="1105" d="M82 420v328q0 69 52.5 121.5t121.5 52.5h98q64 0 104 -15t74 -47l144 -133v184h348v-327q0 -69 -52.5 -121.5t-121.5 -52.5h-98q-64 0 -105 14.5t-74 46.5l-143 133v-184h-348z" />
<glyph unicode="&#xa2;" horiz-adv-x="1136" d="M102 246v614q0 100 73 173t173 73h62v143h430v-143h235v-225l-102 -113h-420v-430h522v-338h-235v-143h-430v143h-62q-100 0 -173 73t-73 173z" />
<glyph unicode="&#xa3;" horiz-adv-x="1249" d="M41 0v369h72q31 19 61 49q59 59 62 125v61h-103v338h103v266q0 100 72.5 173t172.5 73h635v-225l-102 -113h-328v-174h236v-338h-236v-61q0 -29 -14.5 -55.5t-36 -43.5t-42.5 -29.5t-35 -18.5l-15 -7v-20h655v-369h-1157z" />
<glyph unicode="&#xa5;" horiz-adv-x="1372" d="M31 1249v185h512l133 -553h20l133 553h512v-185l-264 -542h101v-256h-226l-20 -41v-41h246v-256h-246v-113h-492v113h-245v256h245v41l-20 41h-225v256h100z" />
<glyph unicode="&#xa8;" horiz-adv-x="962" d="M61 1106v328h369v-328h-369zM532 1106v328h369v-328h-369z" />
<glyph unicode="&#xa9;" horiz-adv-x="2078" d="M113 225v983q0 123 81.5 205t204.5 82h1280q123 0 205 -82t82 -205v-983q0 -123 -82 -204.5t-205 -81.5h-1280q-123 0 -204.5 81.5t-81.5 204.5zM512 195h1055v1044h-1055v-1044zM655 502v430q0 92 61.5 153.5t153.5 61.5h553v-184l-71 -82h-338v-328h409v-266h-542 q-99 0 -162.5 61t-63.5 154z" />
<glyph unicode="&#xab;" horiz-adv-x="1300" d="M123 532l192 420h340v-133l-133 -287l133 -286v-133h-338zM645 532l193 420h340v-133l-134 -287l134 -286v-133h-338z" />
<glyph unicode="&#xad;" horiz-adv-x="1003" d="M61 471v348h881v-348h-881z" />
<glyph unicode="&#xae;" horiz-adv-x="2078" d="M113 225v983q0 123 81.5 205t204.5 82h1280q123 0 205 -82t82 -205v-983q0 -123 -82 -204.5t-205 -81.5h-1280q-123 0 -204.5 81.5t-81.5 204.5zM512 195h1055v1044h-1055v-1044zM625 287v860h604q92 0 153.5 -61.5t61.5 -153.5v-144q0 -81 -68 -137q-29 -23 -65 -37 l153 -204v-123h-358l-92 266h-31v-266h-358zM983 768h102v164h-102v-164z" />
<glyph unicode="&#xb4;" horiz-adv-x="696" d="M61 1126l144 308h430l-256 -308h-318z" />
<glyph unicode="&#xb8;" horiz-adv-x="655" d="M61 -317h256v61h-235v256h235v-61h93q78 0 131 -53.5t53 -131.5v-82q0 -78 -53 -131t-131 -53h-349v195z" />
<glyph unicode="&#xbb;" horiz-adv-x="1300" d="M123 113v133l133 286l-133 287v133h340l192 -420l-194 -419h-338zM645 113v133l133 286l-133 287v133h340l193 -420l-195 -419h-338z" />
<glyph unicode="&#x2c6;" horiz-adv-x="1003" d="M61 1126l256 308h369l256 -308h-338l-102 113l-103 -113h-338z" />
<glyph unicode="&#x2da;" horiz-adv-x="704" d="M61 1126v113q0 77 59.5 136t135.5 59h193q76 0 135 -59t59 -136v-113q0 -76 -58.5 -135t-135.5 -59h-193q-77 0 -136 59t-59 135zM307 1116h90v133h-90v-133z" />
<glyph unicode="&#x2dc;" horiz-adv-x="849" d="M61 1055v245q0 54 40 94t94 40h71q38 0 90 -27q20 -9 43 -25l113 -92v135h276v-247q0 -54 -39.5 -94t-93.5 -40h-71q-45 0 -90 25q-13 6 -43 27l-113 92v-133h-277z" />
<glyph unicode="&#x401;" horiz-adv-x="1290" d="M143 0v1434h1096v-246l-113 -123h-491v-164h420v-348h-420v-184h604v-369h-1096zM215 1587v328h399v-328h-399zM727 1587v328h399v-328h-399z" />
<glyph unicode="&#x402;" horiz-adv-x="1484" d="M20 1065v369h1004v-246l-113 -123h-204v-143h409q123 0 205 -82t82 -205v-389q0 -123 -82 -205t-205 -82h-287v369h82v225h-204v-553h-492v1065h-195z" />
<glyph unicode="&#x403;" horiz-adv-x="1218" d="M143 0v1434h1065v-246l-112 -123h-461v-1065h-492zM461 1577l143 307h430l-256 -307h-317z" />
<glyph unicode="&#x404;" horiz-adv-x="1280" d="M113 287v860q0 123 81.5 205t204.5 82h820v-246l-113 -123h-502v-164h369v-369h-369v-163h615v-369h-820q-123 0 -204.5 82t-81.5 205z" />
<glyph unicode="&#x405;" horiz-adv-x="1300" d="M72 0v369h665v133l-409 82q-113 24 -184.5 101.5t-71.5 184.5v277q0 123 81.5 205t204.5 82h830v-246l-113 -123h-512v-113l410 -82q110 -22 183 -101.5t73 -184.5v-297q0 -123 -82 -205t-205 -82h-870z" />
<glyph unicode="&#x406;" horiz-adv-x="778" d="M143 0v1434h492v-1434h-492z" />
<glyph unicode="&#x407;" horiz-adv-x="849" d="M-10 1587v328h379v-328h-379zM174 0v1434h492v-1434h-492zM481 1587v328h379v-328h-379z" />
<glyph unicode="&#x408;" horiz-adv-x="1146" d="M20 -20v368h492v1086h492v-1168q0 -123 -82 -204.5t-205 -81.5h-697z" />
<glyph unicode="&#x409;" horiz-adv-x="2048" d="M20 -20v368h144l112 1086h1055v-461h369q123 0 205 -82t82 -205v-399q0 -123 -82 -205t-205 -82h-860v1065h-133l-62 -799q-7 -123 -89 -204.5t-198 -81.5h-338zM1331 369h164v235h-164v-235z" />
<glyph unicode="&#x40a;" horiz-adv-x="2058" d="M143 0v1434h492v-502h205v502h491v-502h379q123 0 205 -82t82 -205v-358q0 -123 -82 -205t-205 -82h-870v563h-205v-563h-492zM1331 369h174v194h-174v-194z" />
<glyph unicode="&#x40b;" horiz-adv-x="1484" d="M20 1065v369h1004v-246l-113 -123h-204v-143h409q123 0 205 -82t82 -205v-635h-492v553h-204v-553h-492v1065h-195z" />
<glyph unicode="&#x40c;" horiz-adv-x="1464" d="M143 0v1434h492v-533h92l154 533h501v-185l-256 -532l277 -533v-184h-502l-174 532h-92v-532h-492zM563 1577l144 307h430l-256 -307h-318z" />
<glyph unicode="&#x40e;" horiz-adv-x="1372" d="M41 1249v185h512l154 -676h20l92 676h512v-185l-358 -983q-54 -139 -141.5 -212.5t-196.5 -73.5h-410v368h215v41zM328 1731v174h317v-123h123v123h317v-174q0 -175 -174 -175h-409q-174 0 -174 175z" />
<glyph unicode="&#x40f;" horiz-adv-x="1495" d="M143 0v1434h492v-1065h225v1065h492v-1434h-369l-61 -266h-349l-61 266h-369z" />
<glyph unicode="&#x410;" horiz-adv-x="1454" d="M31 0v184l368 1250h656l368 -1250v-184h-522l-41 266h-266l-41 -266h-522zM635 614h184l-82 369h-20z" />
<glyph unicode="&#x411;" horiz-adv-x="1402" d="M143 0v1434h1096v-246l-113 -123h-491v-154h399q123 0 205 -81.5t82 -204.5v-338q0 -123 -82 -205t-205 -82h-891zM635 369h194v174h-194v-174z" />
<glyph unicode="&#x412;" horiz-adv-x="1433" d="M143 0v1434h881q123 0 205 -82t82 -205v-164q0 -128 -99 -195q-46 -29 -96 -40v-21q58 -11 117 -41q119 -67 119 -194v-205q0 -123 -82 -205t-205 -82h-922zM635 369h225v184h-225v-184zM635 901h184v164h-184v-164z" />
<glyph unicode="&#x413;" horiz-adv-x="1208" d="M143 0v1434h1065v-246l-112 -123h-461v-1065h-492z" />
<glyph unicode="&#x414;" horiz-adv-x="1576" d="M0 -266v624h113q27 17 57 50q58 58 66 124l92 902h1024v-1076h184v-624h-399l-62 266h-614l-62 -266h-399zM553 358h338v717h-154l-41 -543q-2 -21 -11 -41t-21.5 -34.5t-27 -27.5t-29.5 -22t-26.5 -15t-19.5 -10l-8 -3v-21z" />
<glyph unicode="&#x415;" horiz-adv-x="1290" d="M143 0v1434h1096v-246l-113 -123h-491v-164h420v-348h-420v-184h604v-369h-1096z" />
<glyph unicode="&#x416;" horiz-adv-x="2109" d="M61 0v184l267 533l-246 532v185h502l143 -533h82v533h491v-533h82l144 533h502v-185l-246 -532l266 -533v-184h-502l-164 532h-82v-532h-491v532h-82l-164 -532h-502z" />
<glyph unicode="&#x417;" horiz-adv-x="1290" d="M61 0v369h656v163h-400v369h379v164h-512l-112 123v246h829q123 0 205 -82t82 -205v-174q0 -130 -109 -195q-51 -30 -106 -41v-20q58 -11 117 -41q118 -66 118 -195v-194q0 -123 -81.5 -205t-204.5 -82h-861z" />
<glyph unicode="&#x418;" horiz-adv-x="1495" d="M143 0v1434h512v-185l-82 -471h21l297 656h461v-1434h-512v184l82 471h-21l-297 -655h-461z" />
<glyph unicode="&#x419;" horiz-adv-x="1495" d="M143 0v1434h512v-185l-82 -471h21l297 656h461v-1434h-512v184l82 471h-21l-297 -655h-461zM369 1731v174h317v-123h123v123h317v-174q0 -175 -174 -175h-409q-174 0 -174 175z" />
<glyph unicode="&#x41a;" horiz-adv-x="1464" d="M143 0v1434h492v-533h92l154 533h501v-185l-256 -532l277 -533v-184h-502l-174 532h-92v-532h-492z" />
<glyph unicode="&#x41b;" horiz-adv-x="1495" d="M20 -20v368h144l112 1086h1076v-1434h-492v1065h-153l-62 -799q-7 -123 -89 -204.5t-198 -81.5h-338z" />
<glyph unicode="&#x41c;" horiz-adv-x="2007" d="M61 0v184l154 1250h563l215 -656h21l215 656h563l154 -1250v-184h-543v778h-21l-163 -624h-431l-163 624h-21v-778h-543z" />
<glyph unicode="&#x41d;" horiz-adv-x="1495" d="M143 0v1434h492v-533h225v533h492v-1434h-492v532h-225v-532h-492z" />
<glyph unicode="&#x41e;" horiz-adv-x="1443" d="M113 266v901q0 123 81.5 205t204.5 82h645q123 0 205 -82t82 -205v-901q0 -123 -82 -204.5t-205 -81.5h-645q-123 0 -204.5 81.5t-81.5 204.5zM604 348h236v737h-236v-737z" />
<glyph unicode="&#x41f;" horiz-adv-x="1495" d="M143 0v1434h1209v-1434h-492v1065h-225v-1065h-492z" />
<glyph unicode="&#x420;" horiz-adv-x="1392" d="M143 0v1434h881q123 0 205 -82t82 -205v-451q0 -123 -82 -204.5t-205 -81.5h-389v-410h-492zM635 778h184v287h-184v-287z" />
<glyph unicode="&#x421;" horiz-adv-x="1259" d="M113 287v860q0 123 81.5 205t204.5 82h799v-246l-113 -123h-481v-696h594v-369h-799q-123 0 -204.5 82t-81.5 205z" />
<glyph unicode="&#x422;" d="M20 1065v369h1229v-246l-112 -123h-256v-1065h-492v1065h-369z" />
<glyph unicode="&#x423;" horiz-adv-x="1372" d="M41 1249v185h512l154 -676h20l92 676h512v-185l-358 -983q-54 -139 -141.5 -212.5t-196.5 -73.5h-410v368h215v41z" />
<glyph unicode="&#x424;" horiz-adv-x="1945" d="M82 369v716q0 123 82 205t205 82h358v144h492v-144h358q123 0 205 -82t82 -205v-716q0 -123 -82 -205t-205 -82h-358v-143h-492v143h-358q-123 0 -205 82t-82 205zM573 451h154v553h-154v-553zM1219 451h153v553h-153v-553z" />
<glyph unicode="&#x425;" horiz-adv-x="1413" d="M51 0v184l256 553l-235 512v185h522l102 -512h21l102 512h522v-185l-235 -512l256 -553v-184h-522l-123 512h-21l-123 -512h-522z" />
<glyph unicode="&#x426;" horiz-adv-x="1556" d="M143 0v1434h492v-1065h205v1065h491v-1065h185v-635h-400l-61 266h-912z" />
<glyph unicode="&#x427;" horiz-adv-x="1433" d="M102 737v697h492v-615h205v615h491v-1434h-491v451h-410q-123 0 -205 81.5t-82 204.5z" />
<glyph unicode="&#x428;" horiz-adv-x="2191" d="M143 0v1434h492v-1065h215v1065h491v-1065h215v1065h492v-1434h-1905z" />
<glyph unicode="&#x429;" horiz-adv-x="2273" d="M143 0v1434h492v-1065h215v1065h491v-1065h215v1065h492v-1065h184v-635h-399l-61 266h-1629z" />
<glyph unicode="&#x42a;" horiz-adv-x="1474" d="M0 1065v369h737v-461h389q123 0 205 -82t82 -205v-399q0 -123 -82 -205t-205 -82h-880v1065h-246zM737 369h185v235h-185v-235z" />
<glyph unicode="&#x42b;" horiz-adv-x="2099" d="M143 0v1434h492v-461h389q123 0 205 -82t82 -205v-399q0 -123 -82 -205t-205 -82h-881zM635 369h184v235h-184v-235zM1464 0v1434h492v-1434h-492z" />
<glyph unicode="&#x42c;" horiz-adv-x="1392" d="M143 0v1434h492v-461h409q123 0 205 -82t82 -205v-399q0 -123 -82 -205t-205 -82h-901zM635 369h205v235h-205v-235z" />
<glyph unicode="&#x42d;" horiz-adv-x="1280" d="M61 0v369h615v163h-369v369h369v164h-502l-113 123v246h820q123 0 204.5 -82t81.5 -205v-860q0 -123 -81.5 -205t-204.5 -82h-820z" />
<glyph unicode="&#x42e;" horiz-adv-x="2068" d="M143 0v1434h492v-533h164v266q0 123 81.5 205t204.5 82h584q123 0 205 -82t82 -205v-901q0 -123 -82 -204.5t-205 -81.5h-584q-123 0 -204.5 81.5t-81.5 204.5v266h-164v-532h-492zM1290 348h174v737h-174v-737z" />
<glyph unicode="&#x42f;" horiz-adv-x="1454" d="M72 0v184l245 379q-55 15 -98 49q-96 69 -96 187v348q0 123 82 205t205 82h901v-1434h-492v471h-51l-195 -471h-501zM614 840h205v225h-205v-225z" />
<glyph unicode="&#x430;" horiz-adv-x="1280" d="M72 225v195q0 100 72.5 173t172.5 73h390v133h-531v307h735q100 0 173 -73t73 -173v-860h-328l-51 113h-10q-14 -39 -37 -68q-53 -65 -137 -65h-277q-100 0 -172.5 72.5t-72.5 172.5zM512 256h195v154h-195v-154z" />
<glyph unicode="&#x431;" horiz-adv-x="1310" d="M123 225v860q0 146 86 235.5t242 113.5l665 92l51 -348l-594 -82v-123h390q100 0 172.5 -73t72.5 -173v-502q0 -100 -72.5 -172.5t-172.5 -72.5h-594q-100 0 -173 72.5t-73 172.5zM573 317h185v318h-185v-318z" />
<glyph unicode="&#x432;" horiz-adv-x="1290" d="M123 0v1106h809q100 0 173 -73t73 -173v-92q0 -98 -82 -160q-43 -27 -82 -35v-20q49 -11 96 -37q98 -62 98 -158v-112q0 -100 -72.5 -173t-172.5 -73h-840zM553 266h215v154h-215v-154zM553 676h184v164h-184v-164z" />
<glyph unicode="&#x433;" horiz-adv-x="1064" d="M123 0v1106h942v-225l-102 -113h-390v-768h-450z" />
<glyph unicode="&#x434;" horiz-adv-x="1402" d="M0 -246v563h102q37 26 54 43q51 51 59 111l72 635h911v-789h164v-563h-379l-61 246h-482l-61 -246h-379zM502 317h276v461h-123l-20 -307q-7 -56 -70 -100q-26 -20 -63 -33v-21z" />
<glyph unicode="&#x435;" d="M102 246v635q0 100 73 172.5t173 72.5h574q100 0 172.5 -72.5t72.5 -172.5v-451h-624v-123h573v-307h-768q-100 0 -173 73t-73 173zM543 676h184v174h-184v-174z" />
<glyph unicode="&#x436;" horiz-adv-x="1884" d="M61 0v164l226 389l-205 389v164h461l102 -399h72v399h450v-399h72l102 399h461v-164l-205 -389l226 -389v-164h-461l-123 369h-72v-369h-450v369h-72l-123 -369h-461z" />
<glyph unicode="&#x437;" horiz-adv-x="1177" d="M61 0v287h584v123h-328v286h308v123h-451l-102 113v174h757q100 0 173 -73t73 -173v-92q0 -97 -88 -160q-42 -27 -86 -35v-20q49 -11 96 -37q99 -63 99 -158v-112q0 -100 -73 -173t-173 -73h-789z" />
<glyph unicode="&#x438;" horiz-adv-x="1341" d="M123 0v1106h471v-164l-62 -348h21l235 512h431v-1106h-471v164l61 348h-21l-235 -512h-430z" />
<glyph unicode="&#x439;" horiz-adv-x="1341" d="M123 0v1106h471v-164l-62 -348h21l235 512h431v-1106h-471v164l61 348h-21l-235 -512h-430zM297 1393v174h317v-133h113v133h317v-174q0 -174 -174 -174h-399q-174 0 -174 174z" />
<glyph unicode="&#x43a;" horiz-adv-x="1310" d="M123 0v1106h450v-399h82l113 399h461v-164l-215 -389l235 -389v-164h-461l-133 369h-82v-369h-450z" />
<glyph unicode="&#x43b;" horiz-adv-x="1341" d="M20 -20v337h134l71 789h994v-1106h-451v768h-133l-41 -543q-8 -109 -77 -177t-173 -68h-324z" />
<glyph unicode="&#x43c;" horiz-adv-x="1720" d="M61 0v164l144 942h471l174 -492h20l174 492h472l143 -942v-164h-492v614h-20l-92 -481h-389l-93 481h-20v-614h-492z" />
<glyph unicode="&#x43d;" horiz-adv-x="1341" d="M123 0v1106h450v-389h195v389h451v-1106h-451v379h-195v-379h-450z" />
<glyph unicode="&#x43e;" horiz-adv-x="1300" d="M102 225v656q0 100 73 172.5t173 72.5h604q100 0 173 -72.5t73 -172.5v-656q0 -100 -73 -172.5t-173 -72.5h-604q-100 0 -173 72.5t-73 172.5zM553 317h195v471h-195v-471z" />
<glyph unicode="&#x43f;" horiz-adv-x="1341" d="M123 0v1106h1096v-1106h-451v768h-195v-768h-450z" />
<glyph unicode="&#x440;" horiz-adv-x="1310" d="M123 -348v1454h328l51 -113h10q15 38 37 66q55 67 137 67h277q100 0 172.5 -72.5t72.5 -172.5v-635q0 -100 -72.5 -173t-172.5 -73h-390v-348h-450zM573 338h185v450h-185v-450z" />
<glyph unicode="&#x441;" horiz-adv-x="1136" d="M102 246v614q0 100 73 173t173 73h727v-225l-102 -113h-420v-430h522v-338h-727q-100 0 -173 73t-73 173z" />
<glyph unicode="&#x442;" horiz-adv-x="1126" d="M20 768v338h1086v-225l-102 -113h-216v-768h-450v768h-318z" />
<glyph unicode="&#x443;" d="M51 942v164h471l123 -645h21l82 645h471v-164l-338 -1065q-31 -99 -111 -162t-197 -63h-378v338h225v30z" />
<glyph unicode="&#x444;" horiz-adv-x="1740" d="M102 246v614q0 100 73 173t173 73h297v348h451v-348h297q100 0 172.5 -73t72.5 -173v-614q0 -100 -72.5 -173t-172.5 -73h-297v-348h-451v348h-297q-100 0 -173 73t-73 173zM532 338h123v430h-123v-430zM1085 338h123v430h-123v-430z" />
<glyph unicode="&#x445;" horiz-adv-x="1249" d="M51 0v164l225 389l-204 389v164h460l82 -379h21l82 379h461v-164l-205 -389l225 -389v-164h-461l-102 348h-21l-102 -348h-461z" />
<glyph unicode="&#x446;" horiz-adv-x="1402" d="M123 0v1106h450v-768h175v768h450v-768h164v-584h-379l-61 246h-799z" />
<glyph unicode="&#x447;" horiz-adv-x="1280" d="M82 553v553h450v-461h175v461h450v-1106h-450v307h-379q-100 0 -173 73t-73 173z" />
<glyph unicode="&#x448;" horiz-adv-x="1925" d="M123 0v1106h450v-768h164v768h451v-768h164v768h450v-1106h-1679z" />
<glyph unicode="&#x449;" horiz-adv-x="2007" d="M123 0v1106h450v-768h164v768h451v-768h164v768h450v-768h164v-584h-379l-61 246h-1403z" />
<glyph unicode="&#x44a;" horiz-adv-x="1320" d="M0 768v338h676v-348h348q100 0 173 -73t73 -173v-266q0 -100 -73 -173t-173 -73h-799v768h-225zM666 287h163v184h-163v-184z" />
<glyph unicode="&#x44b;" horiz-adv-x="1863" d="M123 0v1106h450v-348h349q100 0 172.5 -73t72.5 -173v-266q0 -100 -72.5 -173t-172.5 -73h-799zM563 287h164v184h-164v-184zM1290 0v1106h451v-1106h-451z" />
<glyph unicode="&#x44c;" horiz-adv-x="1239" d="M123 0v1106h450v-348h369q100 0 173 -73t73 -173v-266q0 -100 -73 -173t-173 -73h-819zM563 287h185v184h-185v-184z" />
<glyph unicode="&#x44d;" horiz-adv-x="1157" d="M61 0v287h553v123h-338v286h338v123h-450l-103 113v174h748q100 0 173 -73t73 -173v-614q0 -100 -73 -173t-173 -73h-748z" />
<glyph unicode="&#x44e;" horiz-adv-x="1853" d="M123 0v1106h450v-389h134v164q0 100 72.5 172.5t172.5 72.5h553q100 0 173 -72.5t73 -172.5v-656q0 -100 -73 -172.5t-173 -72.5h-553q-100 0 -172.5 72.5t-72.5 172.5v154h-134v-379h-450zM1157 317h143v471h-143v-471z" />
<glyph unicode="&#x44f;" horiz-adv-x="1310" d="M82 0v164l205 246q-47 13 -88 43q-86 66 -86 182v225q0 100 72.5 173t172.5 73h830v-1106h-451v348h-61l-133 -348h-461zM553 645h195v164h-195v-164z" />
<glyph unicode="&#x451;" d="M102 246v635q0 100 73 172.5t173 72.5h574q100 0 172.5 -72.5t72.5 -172.5v-451h-624v-123h573v-307h-768q-100 0 -173 73t-73 173zM184 1249v328h389v-328h-389zM543 676h184v174h-184v-174zM666 1249v328h389v-328h-389z" />
<glyph unicode="&#x452;" horiz-adv-x="1331" d="M41 973v317h143l92 164h338v-164h287v-317h-287v-92h390q100 0 172.5 -73t72.5 -173v-410q0 -100 -72.5 -172.5t-172.5 -72.5h-297v337h92v246h-185v-563h-450v973h-123z" />
<glyph unicode="&#x453;" horiz-adv-x="1075" d="M123 0v1106h942v-225l-102 -113h-390v-768h-450zM399 1249l144 307h430l-256 -307h-318z" />
<glyph unicode="&#x454;" horiz-adv-x="1157" d="M102 246v614q0 100 73 173t173 73h748v-174l-103 -113h-450v-123h338v-286h-338v-123h553v-287h-748q-100 0 -173 73t-73 173z" />
<glyph unicode="&#x455;" horiz-adv-x="1167" d="M61 0v307h594v82l-379 62q-94 18 -154.5 79t-60.5 146v184q0 100 73 173t173 73h748v-195l-103 -112h-440v-72l379 -61q94 -18 154.5 -79.5t60.5 -146.5v-194q0 -100 -73 -173t-173 -73h-799z" />
<glyph unicode="&#x456;" horiz-adv-x="696" d="M123 0v1065h450v-1065h-450zM123 1167v328h450v-328h-450z" />
<glyph unicode="&#x457;" horiz-adv-x="849" d="M-10 1167v328h389v-328h-389zM195 0v1065h450v-1065h-450zM471 1167v328h389v-328h-389z" />
<glyph unicode="&#x458;" horiz-adv-x="727" d="M-102 -10h256v1075h450v-1167q0 -100 -73 -173t-173 -73h-460v338zM154 1167v328h450v-328h-450z" />
<glyph unicode="&#x459;" horiz-adv-x="1863" d="M20 -20v337h134l71 789h983v-348h359q100 0 172.5 -73t72.5 -173v-266q0 -100 -72.5 -173t-172.5 -73h-809v768h-123l-41 -543q-7 -108 -76.5 -176.5t-169.5 -68.5h-328zM1208 297h154v164h-154v-164z" />
<glyph unicode="&#x45a;" horiz-adv-x="1863" d="M123 0v1106h450v-369h185v369h450v-369h359q100 0 172.5 -72.5t72.5 -172.5v-246q0 -100 -72.5 -173t-172.5 -73h-809v399h-185v-399h-450zM1208 297h154v143h-154v-143z" />
<glyph unicode="&#x45b;" horiz-adv-x="1351" d="M41 973v317h143l92 164h338v-164h287v-317h-287v-92h390q100 0 172.5 -73t72.5 -173v-635h-450v563h-185v-563h-450v973h-123z" />
<glyph unicode="&#x45c;" horiz-adv-x="1310" d="M123 0v1106h450v-399h82l113 399h461v-164l-215 -389l235 -389v-164h-461l-133 369h-82v-369h-450zM481 1249l144 307h430l-256 -307h-318z" />
<glyph unicode="&#x45e;" d="M51 942v164h471l123 -645h21l82 645h471v-164l-338 -1065q-31 -99 -111 -162t-197 -63h-378v338h225v30zM276 1393v174h318v-133h113v133h317v-174q0 -174 -174 -174h-399q-175 0 -175 174z" />
<glyph unicode="&#x45f;" horiz-adv-x="1341" d="M123 0v1106h450v-768h195v768h451v-1106h-328l-62 -246h-317l-61 246h-328z" />
<glyph unicode="&#x472;" horiz-adv-x="1443" d="M113 266v901q0 123 81.5 205t204.5 82h645q123 0 205 -82t82 -205v-901q0 -123 -82 -204.5t-205 -81.5h-645q-123 0 -204.5 81.5t-81.5 204.5zM604 348h236v225h-236v-225zM604 840h236v245h-236v-245z" />
<glyph unicode="&#x473;" horiz-adv-x="1300" d="M102 225v656q0 100 73 172.5t173 72.5h604q100 0 173 -72.5t73 -172.5v-656q0 -100 -73 -172.5t-173 -72.5h-604q-100 0 -173 72.5t-73 172.5zM553 297h195v154h-195v-154zM553 655h195v154h-195v-154z" />
<glyph unicode="&#x490;" horiz-adv-x="1228" d="M143 0v1434h605l61 153h399v-522h-573v-1065h-492z" />
<glyph unicode="&#x491;" horiz-adv-x="1085" d="M123 0v1106h502l61 133h379v-471h-492v-768h-450z" />
<glyph unicode="&#x492;" horiz-adv-x="1208" d="M20 471v348h123v615h1065v-246l-112 -123h-461v-246h307v-348h-307v-471h-492v471h-123z" />
<glyph unicode="&#x493;" horiz-adv-x="1064" d="M20 307v307h103v492h942v-225l-102 -113h-390v-154h287v-307h-287v-307h-450v307h-103z" />
<glyph unicode="&#x496;" horiz-adv-x="2129" d="M61 0v184l267 533l-246 532v185h502l143 -533h82v533h491v-533h82l144 533h502v-185l-246 -532l178 -359h170v-624h-399l-62 266h-123l-164 532h-82v-532h-491v532h-82l-164 -532h-502z" />
<glyph unicode="&#x497;" horiz-adv-x="1894" d="M61 0v164l226 389l-205 389v164h461l102 -399h72v399h450v-399h72l102 399h461v-164l-205 -389l136 -236h161v-563h-378l-62 246h-92l-123 369h-72v-369h-450v369h-72l-123 -369h-461z" />
<glyph unicode="&#x498;" horiz-adv-x="1290" d="M61 0v369h656v163h-400v369h379v164h-512l-112 123v246h829q123 0 205 -82t82 -205v-174q0 -130 -109 -195q-51 -30 -106 -41v-20q58 -11 117 -41q118 -66 118 -195v-194q0 -123 -81.5 -205t-204.5 -82h-82v-195q0 -76 -59 -135t-136 -59h-328v256h215v133h-471z" />
<glyph unicode="&#x499;" horiz-adv-x="1177" d="M61 0v287h584v123h-328v286h308v123h-451l-102 113v174h757q100 0 173 -73t73 -173v-92q0 -97 -88 -160q-42 -27 -86 -35v-20q49 -11 96 -37q99 -63 99 -158v-112q0 -100 -73 -173t-173 -73h-92v-174q0 -76 -59 -135.5t-136 -59.5h-287v256h175v113h-390z" />
<glyph unicode="&#x49a;" horiz-adv-x="1484" d="M143 0v1434h492v-533h92l154 533h501v-185l-256 -532l187 -359h172v-624h-400l-61 266h-123l-174 532h-92v-532h-492z" />
<glyph unicode="&#x49b;" horiz-adv-x="1320" d="M123 0v1106h450v-399h82l113 399h461v-164l-215 -389l141 -236h166v-563h-379l-61 246h-93l-133 369h-82v-369h-450z" />
<glyph unicode="&#x49c;" horiz-adv-x="1464" d="M143 0v1434h492v-533h20v205h123v-205h10l93 533h501v-185l-194 -532l215 -533v-184h-502l-113 532h-10v-204h-123v204h-20v-532h-492z" />
<glyph unicode="&#x49d;" horiz-adv-x="1310" d="M123 0v1106h450v-399h21v174h92v-174h10l72 399h461v-164l-174 -389l194 -389v-164h-461l-92 369h-10v-185h-92v185h-21v-369h-450z" />
<glyph unicode="&#x4a0;" horiz-adv-x="1484" d="M0 1085v349h655v-533h93l153 533h502v-185l-256 -532l276 -533v-184h-501l-174 532h-93v-532h-491v1085h-164z" />
<glyph unicode="&#x4a1;" horiz-adv-x="1331" d="M0 758v348h594v-399h82l112 399h461v-164l-215 -389l236 -389v-164h-461l-133 369h-82v-369h-451v758h-143z" />
<glyph unicode="&#x4a2;" horiz-adv-x="1495" d="M143 0v1434h492v-533h225v533h492v-1076h123v-624h-400l-61 266h-154v532h-225v-532h-492z" />
<glyph unicode="&#x4a3;" horiz-adv-x="1341" d="M123 0v1106h450v-389h195v389h451v-789h102v-563h-379l-61 246h-113v379h-195v-379h-450z" />
<glyph unicode="&#x4aa;" horiz-adv-x="1259" d="M113 287v860q0 123 81.5 205t204.5 82h799v-246l-113 -123h-481v-696h594v-369h-430v-133h215v-256h-328q-77 0 -135.5 58.5t-58.5 135.5v195h-62q-123 0 -204.5 82t-81.5 205z" />
<glyph unicode="&#x4ab;" horiz-adv-x="1136" d="M102 246v614q0 100 73 173t173 73h727v-225l-102 -113h-420v-430h522v-338h-327v-113h174v-256h-287q-77 0 -136 59.5t-59 135.5v174h-92q-100 0 -173 73t-73 173z" />
<glyph unicode="&#x4ae;" horiz-adv-x="1372" d="M31 1249v185h512l133 -553h20l133 553h512v-185l-409 -839v-410h-492v410z" />
<glyph unicode="&#x4af;" horiz-adv-x="1290" d="M51 942v164h471l113 -737h20l113 737h471v-164l-369 -983v-307h-450v307z" />
<glyph unicode="&#x4b0;" horiz-adv-x="1372" d="M31 1249v185h512l133 -553h20l133 553h512v-185l-329 -676h114v-348h-194v-225h-492v225h-194v348h114z" />
<glyph unicode="&#x4b1;" horiz-adv-x="1290" d="M51 942v164h471l113 -737h20l113 737h471v-164l-285 -758h111v-307h-195v-225h-450v225h-195v307h109z" />
<glyph unicode="&#x4b2;" horiz-adv-x="1423" d="M51 0v184l256 553l-235 512v185h522l102 -512h21l102 512h522v-185l-235 -512l174 -379h143v-624h-399l-61 266h-123l-123 512h-21l-123 -512h-522z" />
<glyph unicode="&#x4b3;" d="M51 0v164l225 389l-204 389v164h460l82 -379h21l82 379h461v-164l-205 -389l135 -236h162v-563h-379l-62 246h-92l-102 348h-21l-102 -348h-461z" />
<glyph unicode="&#x4b8;" horiz-adv-x="1433" d="M102 737v697h492v-615h20v205h164v-205h21v615h491v-1434h-491v451h-21v-205h-164v205h-225q-123 0 -205 81.5t-82 204.5z" />
<glyph unicode="&#x4b9;" horiz-adv-x="1280" d="M82 553v553h450v-461h21v184h133v-184h21v461h450v-1106h-450v307h-21v-174h-133v174h-225q-100 0 -173 73t-73 173z" />
<glyph unicode="&#x4ba;" horiz-adv-x="1433" d="M143 0v1434h492v-451h409q123 0 205 -82t82 -205v-696h-491v614h-205v-614h-492z" />
<glyph unicode="&#x4bb;" horiz-adv-x="1341" d="M133 0v1454h451v-348h389q100 0 173 -73t73 -173v-860h-451v768h-184v-768h-451z" />
<glyph unicode="&#x4d8;" horiz-adv-x="1443" d="M113 266v635h727v164h-656v369h860q123 0 205 -82t82 -205v-881q0 -123 -82 -204.5t-205 -81.5h-645q-123 0 -204.5 81.5t-81.5 204.5zM604 348h236v184h-236v-184z" />
<glyph unicode="&#x4d9;" d="M102 225v441h625v133h-573v307h768q100 0 172.5 -73t72.5 -173v-635q0 -100 -72.5 -172.5t-172.5 -72.5h-574q-100 0 -173 72.5t-73 172.5zM543 256h184v164h-184v-164z" />
<glyph unicode="&#x2000;" horiz-adv-x="957" />
<glyph unicode="&#x2001;" horiz-adv-x="1915" />
<glyph unicode="&#x2002;" horiz-adv-x="957" />
<glyph unicode="&#x2003;" horiz-adv-x="1915" />
<glyph unicode="&#x2004;" horiz-adv-x="638" />
<glyph unicode="&#x2005;" horiz-adv-x="478" />
<glyph unicode="&#x2006;" horiz-adv-x="319" />
<glyph unicode="&#x2007;" horiz-adv-x="319" />
<glyph unicode="&#x2008;" horiz-adv-x="239" />
<glyph unicode="&#x2009;" horiz-adv-x="383" />
<glyph unicode="&#x200a;" horiz-adv-x="106" />
<glyph unicode="&#x2010;" horiz-adv-x="1003" d="M61 471v348h881v-348h-881z" />
<glyph unicode="&#x2011;" horiz-adv-x="1003" d="M61 471v348h881v-348h-881z" />
<glyph unicode="&#x2012;" horiz-adv-x="1003" d="M61 471v348h881v-348h-881z" />
<glyph unicode="&#x2013;" d="M61 451v327h1147v-327h-1147z" />
<glyph unicode="&#x2014;" horiz-adv-x="1832" d="M61 451v327h1711v-327h-1711z" />
<glyph unicode="&#x2018;" horiz-adv-x="563" d="M82 860v287l205 287h194v-574h-399z" />
<glyph unicode="&#x2019;" horiz-adv-x="563" d="M82 860v574h399v-287l-205 -287h-194z" />
<glyph unicode="&#x201a;" horiz-adv-x="563" d="M82 -205v574h399v-287l-184 -287h-215z" />
<glyph unicode="&#x201c;" horiz-adv-x="1054" d="M82 860v287l205 287h194v-574h-399zM573 860v287l205 287h195v-574h-400z" />
<glyph unicode="&#x201d;" horiz-adv-x="1054" d="M82 860v574h399v-287l-205 -287h-194zM573 860v574h400v-287l-205 -287h-195z" />
<glyph unicode="&#x201e;" horiz-adv-x="1054" d="M82 -205v574h399v-287l-184 -287h-215zM573 -205v574h400v-287l-185 -287h-215z" />
<glyph unicode="&#x2026;" horiz-adv-x="1710" d="M82 0v369h399v-369h-399zM655 0v369h400v-369h-400zM1229 0v369h399v-369h-399z" />
<glyph unicode="&#x202f;" horiz-adv-x="383" />
<glyph unicode="&#x2039;" horiz-adv-x="829" d="M123 532l235 451h349v-133l-164 -318l164 -317v-133h-349z" />
<glyph unicode="&#x203a;" horiz-adv-x="829" d="M123 82v133l164 317l-164 318v133h348l236 -451l-236 -450h-348z" />
<glyph unicode="&#x205f;" horiz-adv-x="478" />
<glyph unicode="&#x20ac;" horiz-adv-x="1351" d="M61 430v256h123v62h-123v256h123v143q0 123 82 205t205 82h819v-226l-112 -123h-502v-81h358v-256h-358v-62h358v-256h-358v-82h614v-348h-819q-123 0 -205 82t-82 205v143h-123z" />
<glyph unicode="&#x2122;" horiz-adv-x="1873" d="M41 1188v246h717v-174l-62 -72h-143v-430h-317v430h-195zM778 758v112l92 564h297l103 -287h10l102 287h297l93 -564v-112h-318v317h-10l-62 -235h-215l-61 235h-10v-317h-318z" />
<glyph unicode="&#x25fc;" horiz-adv-x="1105" d="M0 0v1106h1106v-1106h-1106z" />
</font>
</defs>
</svg>
